<?xml version="1.0" encoding="UTF-8"?>
<svg xmlns="http://www.w3.org/2000/svg" viewBox="0 0 281.21 42.5">
  <g id="a" data-name="Layer 1">
    <path d="m84.8,6.6h1.9v8.7h-1.9l-4.1-5.4v5.4h-1.9V6.6h1.8l4.3,5.6v-5.6h-.1Zm10.3,8.7l-.8-1.9h-3.6l-.8,1.9h-2.1l3.8-8.7h1.9l3.8,8.7h-2.2Zm-2.6-6.1l-1.1,2.5h2.2l-1.1-2.5Zm8.7-.9v7h-1.9v-7h-2.5v-1.7h6.9v1.7h-2.5Zm3.9-1.7h1.9v8.7h-1.9s0-8.7,0-8.7Zm11.4,7.5c-.9.9-2,1.3-3.2,1.3s-2.4-.4-3.2-1.3c-.9-.9-1.3-1.9-1.3-3.2s.4-2.3,1.3-3.2,2-1.3,3.2-1.3,2.4.4,3.2,1.3c.9.9,1.3,1.9,1.3,3.2s-.5,2.3-1.3,3.2Zm-.7-3.2c0-.8-.2-1.4-.7-2-.5-.5-1.1-.8-1.8-.8s-1.3.3-1.8.8-.7,1.2-.7,2,.2,1.4.7,2c.5.5,1.1.8,1.8.8s1.3-.3,1.8-.8c.5-.6.7-1.3.7-2Zm9.7-4.3h1.9v8.7h-1.9l-4.1-5.4v5.4h-1.9V6.6h1.8l4.3,5.6v-5.6h-.1Zm10.3,8.7l-.8-1.9h-3.6l-.8,1.9h-2.1l3.8-8.7h1.9l3.8,8.7h-2.2,0Zm-2.6-6.1l-1.1,2.5h2.2l-1.1-2.5h0Zm5.6,6.1V6.6h1.9v7h3.7v1.7h-5.6,0Zm14.4-1.8c1,0,1.7-.4,2.3-1.1l1.2,1.3c-1,1.1-2.1,1.7-3.5,1.7-1.3,0-2.4-.4-3.3-1.3-.9-.8-1.3-1.9-1.3-3.2s.4-2.4,1.3-3.2c.9-.9,2-1.3,3.2-1.3,1.4,0,2.6.5,3.6,1.6l-1.2,1.4c-.6-.8-1.4-1.1-2.3-1.1-.7,0-1.4.2-1.9.7s-.8,1.1-.8,1.9.2,1.5.7,1.9c.7.5,1.3.7,2,.7Zm11.2,1.8l-.8-1.9h-3.6l-.8,1.9h-2.1l3.8-8.7h1.9l3.8,8.7h-2.2,0Zm-2.6-6.1l-1.1,2.5h2.2l-1.1-2.5h0Zm11.8-2.6h1.9v8.7h-1.9l-4.1-5.4v5.4h-1.9V6.6h1.8l4.3,5.6v-5.6h-.1Zm8,6.9c1,0,1.7-.4,2.3-1.1l1.2,1.3c-1,1.1-2.1,1.7-3.5,1.7s-2.4-.4-3.3-1.3c-.9-.8-1.3-1.9-1.3-3.2s.4-2.4,1.3-3.2c.9-.9,2-1.3,3.2-1.3,1.4,0,2.6.5,3.6,1.6l-1.2,1.4c-.6-.8-1.4-1.1-2.3-1.1-.7,0-1.4.2-1.9.7s-.8,1.1-.8,1.9.2,1.5.7,1.9c.8.5,1.3.7,2,.7Zm11.4-6.9v1.7h-4.3v1.8h3.9v1.7h-3.9v1.8h4.5v1.7h-6.4V6.6s6.2,0,6.2,0Zm8.9,2.9c0,1.4-.6,2.3-1.7,2.7l2.2,3.1h-2.4l-1.9-2.8h-1.3v2.8h-1.9V6.6h3.3c1.4,0,2.3.2,2.9.7.5.4.8,1.1.8,2.2Zm-2.3,1c.2-.2.4-.6.4-1,0-.5-.1-.8-.4-1-.2-.2-.7-.3-1.3-.3h-1.5v2.6h1.4c.7,0,1.2-.1,1.4-.3h0Zm7.6-3.9h1.9v8.7h-1.9s0-8.7,0-8.7Zm10.2,0h1.9v8.7h-1.9l-4.1-5.4v5.4h-1.9V6.6h1.8l4.3,5.6v-5.6h-.1Zm6.1,1.7c-.2.2-.3.4-.3.6s.1.5.3.6.8.3,1.6.5,1.5.5,1.9.9c.5.4.7,1,.7,1.8s-.3,1.4-.9,1.9c-.6.5-1.4.7-2.3.7-1.4,0-2.6-.5-3.7-1.5l1.2-1.4c.9.8,1.8,1.2,2.6,1.2.4,0,.6-.1.8-.2.2-.2.3-.4.3-.6,0-.3-.1-.5-.3-.6-.2-.2-.6-.3-1.3-.5-1-.2-1.8-.6-2.2-.9s-.7-1-.7-1.8.3-1.5.9-1.9c.6-.4,1.3-.7,2.2-.7.6,0,1.2.1,1.7.3.6.2,1.1.5,1.5.8l-1,1.4c-.8-.6-1.5-.9-2.3-.9-.3.1-.5.2-.7.3Zm9.5,0v7h-1.9v-7h-2.5v-1.7h6.9v1.7h-2.5Zm3.9-1.7h1.9v8.7h-1.9s0-8.7,0-8.7Zm7.7,1.7v7h-1.9v-7h-2.5v-1.7h6.9v1.7h-2.5Zm6.2,4.7c.3.4.8.6,1.3.6s1-.2,1.3-.6.5-1,.5-1.6v-4.8h1.9v4.9c0,1.3-.3,2.2-1,2.9-.7.7-1.6,1-2.7,1s-2-.3-2.7-1-1.1-1.6-1.1-2.9v-4.9h1.9v4.8c.1.7.3,1.2.6,1.6Zm10.7-4.7v7h-1.9v-7h-2.5v-1.7h6.9v1.7h-2.5Zm10.2-1.7v1.7h-4.3v1.8h3.9v1.7h-3.9v1.8h4.5v1.7h-6.4V6.6h6.2,0Z" fill="#bb0e3d" stroke-width="0"/>
    <g>
      <path d="m57.6,2.2c-.9-1.3-2.4-2.2-3.9-2.2h-3.6l12,21.2-12,21.2h3.6c1.7,0,3.2-.9,3.9-2.2l10.5-18.9L57.6,2.2Z" fill="#ba1f40" stroke-width="0"/>
      <path d="m58.8,21.1L47.1,0H4.6C1.9,0,0,2.1,0,4.6v33.3c0,2.5,2,4.6,4.6,4.6h42.5s11.7-21.4,11.7-21.4Z" fill="#606061" stroke-width="0"/>
      <path d="m25.1,11.8h3.2v18.8h-3.2V11.8Zm-6.3,0v13.7l-8.7-13.7h-3v18.8h3v-13.8l8.7,13.8h3.1V11.8h-3.1Zm24.3,0v7.8h-8.7v-7.8h-3.1v18.8h3.1v-7.9h8.7v7.9h3.2V11.8h-3.2Z" fill="#fff" stroke-width="0"/>
    </g>
  </g>
  <g id="b" data-name="Layer 5">
    <path d="m204.5,33.87c1.2,0,2.3-.5,3-1.5l1.6,1.7c-1.3,1.5-2.8,2.2-4.6,2.2s-3.2-.5-4.4-1.6c-1.2-1.1-1.7-2.5-1.7-4.2s.5-3.1,1.7-4.2,2.6-1.7,4.3-1.7c1.9,0,3.4.7,4.7,2.2l-1.6,1.8c-.8-1-1.8-1.5-3-1.5-.9,0-1.8.3-2.5.9s-1,1.5-1,2.6.3,1.9.9,2.6c.8.5,1.8.7,2.6.7Z" fill="#65666a" stroke-width="0"/>
    <path d="m219.65,31.88c0,1.2-.5,2.3-1.3,3.2s-2,1.3-3.3,1.3-2.4-.5-3.3-1.3c-.9-.9-1.3-1.9-1.3-3.2s.5-2.3,1.3-3.2c.9-.9,2-1.3,3.3-1.3s2.4.5,3.3,1.3c.9.9,1.3,1.9,1.3,3.2Zm-6.8,0c0,.7.2,1.3.6,1.8s.9.7,1.6.7c.6,0,1.2-.2,1.6-.7s.6-1,.6-1.8c0-.7-.2-1.3-.6-1.8s-.9-.7-1.6-.7c-.6,0-1.2.2-1.6.7s-.6,1.1-.6,1.8Z" fill="#65666a" stroke-width="0"/>
    <path d="m229,31.48v4.7h-2.5v-4.8c0-.7-.1-1.2-.3-1.6s-.5-.5-1-.5-.9.2-1.2.5-.5.9-.5,1.6v4.8h-2.4v-8.8h2.4v1c.7-.8,1.5-1.2,2.3-1.2.5,0,1.1.2,1.5.5.5.3.8.7,1,1.2.3-.5.8-.9,1.4-1.2.5-.3,1.2-.5,1.7-.5,1,0,1.9.3,2.5.9s.9,1.5.9,2.6v5.5h-2.5v-4.8c0-1.3-.5-2-1.5-2-.5,0-.9.2-1.2.5-.4.4-.6.9-.6,1.6h0Z" fill="#65666a" stroke-width="0"/>
    <path d="m244.7,31.48v4.7h-2.5v-4.8c0-.7-.1-1.2-.3-1.6s-.5-.5-1-.5-.9.2-1.2.5-.5.9-.5,1.6v4.8h-2.4v-8.8h2.4v1c.7-.8,1.5-1.2,2.3-1.2.5,0,1.1.2,1.5.5.5.3.8.7,1,1.2.3-.5.8-.9,1.4-1.2.5-.3,1.2-.5,1.7-.5,1,0,1.9.3,2.5.9s.9,1.5.9,2.6v5.5h-2.5v-4.8c0-1.3-.5-2-1.5-2-.5,0-.9.2-1.2.5-.4.4-.6.9-.6,1.6h0Z" fill="#65666a" stroke-width="0"/>
    <path d="m261.7,31.88c0,1.2-.5,2.3-1.3,3.2s-2,1.3-3.3,1.3-2.4-.5-3.3-1.3c-.9-.9-1.3-1.9-1.3-3.2s.5-2.3,1.3-3.2c.9-.9,2-1.3,3.3-1.3s2.4.5,3.3,1.3c.9.9,1.3,1.9,1.3,3.2Zm-6.8,0c0,.7.2,1.3.6,1.8s.9.7,1.6.7c.6,0,1.2-.2,1.6-.7s.6-1,.6-1.8c0-.7-.2-1.3-.6-1.8s-.9-.7-1.6-.7c-.6,0-1.2.2-1.6.7s-.6,1.1-.6,1.8Z" fill="#65666a" stroke-width="0"/>
    <path d="m266.11,31.28v4.9h-2.4v-8.8h2.4v1c.8-.8,1.6-1.1,2.5-1.1s1.7.3,2.3,1c.6.6.9,1.6.9,2.6v5.3h-2.4v-5c0-1.3-.5-2-1.5-2-.5,0-.9.2-1.2.5-.3.4-.6.9-.6,1.6h0Z" fill="#65666a" stroke-width="0"/>
    <path d="m281.01,33.43c0,.9-.3,1.6-.9,2.1s-1.5.8-2.4.8c-.6,0-1.3-.2-2-.4s-1.3-.5-1.9-1l1.1-1.6c.9.7,1.9,1.1,3,1.1.3,0,.5-.1.8-.2.2-.2.3-.3.3-.5s-.2-.4-.4-.5c-.2-.2-.6-.3-1.1-.5s-.9-.3-1.1-.4c-.2-.1-.5-.2-.9-.5-.7-.4-1-1-1-1.9s.3-1.5,1-2,1.5-.8,2.6-.8,2.1.3,3.1,1l-.9,1.6c-.8-.5-1.6-.8-2.3-.8-.8,0-1.2.2-1.2.6,0,.2.2.4.4.5s.6.3,1.2.5c.5.2.9.3,1.2.4.2.1.5.2.9.5.2.5.5,1.1.5,2h0Z" fill="#65666a" stroke-width="0"/>
  </g>
  <g id="c" data-name="Layer 2">
    <path d="m86.61,30.5h2.6v4c-1.2,1.2-2.7,1.9-4.7,1.9-1.7,0-3.1-.5-4.2-1.6-1.2-1.1-1.7-2.5-1.7-4.2s.5-3.1,1.7-4.2,2.6-1.7,4.2-1.7,3,.5,4.3,1.6l-1.3,1.9c-.5-.5-1-.8-1.4-.9-.5-.2-.9-.2-1.4-.2-.9,0-1.8.3-2.4,1-.7.6-1,1.6-1,2.6s.3,1.9.9,2.6c.6.6,1.4.9,2.3.9s1.6-.2,2.2-.5v-3.2h-.1Zm12.2,4.6c-1,.9-2.2,1.4-3.5,1.4s-2.4-.4-3.3-1.2c-.9-.9-1.3-1.9-1.3-3.3s.5-2.5,1.3-3.3c.9-.8,1.9-1.2,3.1-1.2s2.3.4,3.1,1.1c.8.7,1.2,1.7,1.2,3v1.3h-6.4c.1.5.3.9.8,1.2.4.3.9.5,1.4.5.9,0,1.6-.3,2.1-.9l1.5,1.4h0Zm-2.3-5.3c-.3-.3-.8-.4-1.2-.4-.5,0-.9.2-1.3.5s-.6.7-.7,1.2h3.9c-.2-.6-.4-1-.7-1.3Zm7.2,1.6v4.9h-2.4v-8.8h2.4v1c.8-.8,1.6-1.1,2.5-1.1s1.7.3,2.3,1c.6.6.9,1.6.9,2.6v5.3h-2.4v-5c0-1.3-.5-2-1.5-2-.5,0-.9.2-1.2.5-.3.4-.6.9-.6,1.6h0Zm16.8.5c0,1.2-.5,2.3-1.3,3.2s-2,1.3-3.3,1.3-2.4-.5-3.3-1.3c-.9-.9-1.3-1.9-1.3-3.2s.5-2.3,1.3-3.2c.9-.9,2-1.3,3.3-1.3s2.4.5,3.3,1.3c.9.9,1.3,1.9,1.3,3.2Zm-6.8,0c0,.7.2,1.3.6,1.8s.9.7,1.6.7c.6,0,1.2-.2,1.6-.7s.6-1,.6-1.8c0-.7-.2-1.3-.6-1.8s-.9-.7-1.6-.7c-.6,0-1.2.2-1.6.7s-.6,1.1-.6,1.8Zm16.7-.3v4.7h-2.5v-4.8c0-.7-.1-1.2-.3-1.6s-.5-.5-1-.5-.9.2-1.2.5-.5.9-.5,1.6v4.8h-2.4v-8.8h2.4v1c.7-.8,1.5-1.2,2.3-1.2.5,0,1.1.2,1.5.5.5.3.8.7,1,1.2.3-.5.8-.9,1.4-1.2.5-.3,1.2-.5,1.7-.5,1,0,1.9.3,2.5.9s.9,1.5.9,2.6v5.5h-2.5v-4.8c0-1.3-.5-2-1.5-2-.5,0-.9.2-1.2.5-.4.4-.6.9-.6,1.6h0Zm8.2-5.2c-.3-.3-.4-.6-.4-1s.2-.8.4-1c.3-.3.6-.4,1-.4s.8.2,1,.4c.3.3.4.6.4,1s-.2.8-.4,1c-.3.3-.6.4-1,.4s-.7-.1-1-.4Zm2.3,9.9h-2.4v-8.8h2.4v8.8Zm6.5-2c.8,0,1.6-.4,2.2-1.2l1.5,1.6c-1.2,1.2-2.3,1.8-3.7,1.8s-2.4-.4-3.3-1.2c-.9-.9-1.4-1.9-1.4-3.3s.5-2.4,1.4-3.3c.9-.9,2-1.2,3.3-1.2.6,0,1.2.2,1.9.4.6.2,1.2.6,1.7,1.2l-1.2,1.6c-.3-.3-.6-.6-1-.8s-.8-.3-1.2-.3c-.6,0-1.2.2-1.6.6-.5.4-.7,1-.7,1.7,0,.8.2,1.3.7,1.7s.8.7,1.4.7h0Z" fill="#65666a" stroke-width="0"/>
  </g>
  <g id="d" data-name="Layer 3">
    <path d="m165.03,26.15c1.11,1.02,1.67,2.42,1.67,4.22s-.53,3.22-1.62,4.29-2.73,1.58-4.94,1.58h-3.96v-11.63h4.09c2.07,0,3.67.51,4.76,1.53Zm-1.89,6.89c.64-.6.96-1.47.96-2.6s-.31-2.02-.96-2.62c-.64-.62-1.62-.91-2.93-.91h-1.44v7.05h1.65c1.18-.02,2.09-.31,2.73-.91Z" fill="#65666a" stroke-width="0"/>
    <path d="m176.03,36.23h-2.33v-1.09c-.64.8-1.44,1.22-2.38,1.22s-1.73-.27-2.38-.82c-.64-.56-.96-1.29-.96-2.2s.33-1.6,1-2.05,1.58-.69,2.71-.69h1.87v-.04c0-.96-.51-1.42-1.51-1.42-.42,0-.89.09-1.38.27-.49.18-.89.38-1.22.64l-1.11-1.6c1.18-.84,2.51-1.29,4.02-1.29,1.09,0,1.98.27,2.65.82.69.53,1.02,1.4,1.02,2.58v5.67Zm-2.51-3.4v-.42h-1.56c-1,0-1.49.31-1.49.93,0,.31.11.58.36.73.24.18.58.27,1.02.27s.82-.13,1.18-.4c.31-.29.49-.64.49-1.11Z" fill="#65666a" stroke-width="0"/>
    <path d="m181.3,29.09v4c0,.33.09.62.27.8.18.2.38.29.62.29.47,0,.87-.2,1.18-.62l.93,1.73c-.78.71-1.6,1.07-2.45,1.07s-1.58-.29-2.18-.84-.89-1.33-.89-2.31v-4.11h-1.04v-1.8h1.04v-2.67h2.51v2.67h2.16v1.8h-2.16Z" fill="#65666a" stroke-width="0"/>
    <path d="m193.22,36.22h-2.33v-1.09c-.64.8-1.44,1.22-2.38,1.22s-1.73-.27-2.38-.82-.96-1.29-.96-2.2.33-1.6,1-2.05,1.58-.69,2.71-.69h1.87v-.04c0-.96-.51-1.42-1.51-1.42-.42,0-.89.09-1.38.27-.49.18-.89.38-1.22.64l-1.11-1.6c1.18-.84,2.51-1.29,4.02-1.29,1.09,0,1.98.27,2.65.82.69.53,1.02,1.4,1.02,2.58v5.67Zm-2.49-3.4v-.42h-1.56c-1,0-1.49.31-1.49.93,0,.31.11.58.36.73.24.18.58.27,1.02.27s.82-.13,1.18-.4c.31-.29.49-.64.49-1.11Z" fill="#65666a" stroke-width="0"/>
  </g>
</svg>